<svg xmlns="http://www.w3.org/2000/svg" width="774.06" height="785.992" viewBox="0 0 774.06 785.992">
  <g id="R2B_logo" data-name="R2B logo" transform="translate(-71.19 167.904)" opacity="0.2">
    <path id="Path_2" data-name="Path 2" d="M371.511-143.465C298.3-116.538,261.275-92.134,204.895-33.23,132.526,43.347,103.074,119.081,103.915,226.792c.842,112.761,15.147,158.2,77.418,241.509C230.14,533.1,347.949,613.88,377.4,602.941c6.732-2.524,15.988,0,21.037,5.049,6.732,6.732,42.075,10.1,96.772,10.1,85.833,0,88.357-.842,157.36-36.184,107.711-54.7,161.567-111.919,201.117-212.057,20.2-50.49,31.977-131.273,18.513-122.858-5.049,3.366-11.781,19.354-15.147,37.026C825.918,470.826,663.51,607.99,484.271,599.575c-55.539-2.524-139.688-23.562-160.726-39.55-6.732-5.89-21.879-15.147-33.66-20.2-26.928-14.305-84.149-64.8-84.149-75.735,0-4.207-5.891-12.622-13.464-19.354-21.037-17.671-44.6-70.686-60.588-138.847-29.452-123.7,4.207-242.351,93.406-334.073,52.173-53.014,98.455-86.674,98.455-72.369,0,6.732,5.049,5.049,15.147-3.366,8.415-8.415,21.879-14.305,29.452-14.305,6.732,0,19.354-5.89,26.928-13.464,6.732-7.574,18.513-10.939,25.245-8.415,7.574,2.525,21.037,1.683,31.977-2.524,27.77-10.94,156.518,4.207,173.348,19.354,8.415,7.573,21.879,13.464,31.135,13.464,8.415,0,23.562,5.89,31.977,12.622,18.513,13.464,30.294,15.988,30.294,5.891,0-5.891-24.4-19.354-85.832-47.965-33.66-15.147-115.285-29.452-161.567-28.611C452.294-167.869,407.7-156.93,371.511-143.465Z" transform="translate(-32.708 0)" fill="#979797"/>
    <path id="Path_3" data-name="Path 3" d="M177-149.7c0,9.257,21.879,18.513,28.611,11.781,2.524-2.525,2.524-8.415,0-11.781C199.72-159.8,177-158.958,177-149.7Z" transform="translate(509.341 81.129)" fill="#979797"/>
    <path id="Path_4" data-name="Path 4" d="M182-145.585c0,4.207,4.207,8.415,8.415,8.415a8.433,8.433,0,0,0,8.415-8.415c0-5.049-3.366-8.415-8.415-8.415A8.432,8.432,0,0,0,182-145.585Z" transform="translate(546.416 103.099)" fill="#979797"/>
    <path id="Path_5" data-name="Path 5" d="M187.129-142.246c-3.366,8.415-4.207,17.671-.841,20.2,8.415,8.415,15.147-3.366,10.939-20.2C193.862-156.551,193.862-156.551,187.129-142.246Z" transform="translate(562.323 110.699)" fill="#979797"/>
    <path id="Path_6" data-name="Path 6" d="M188-138.165c0,15.988,13.464,26.086,20.2,15.147,2.524-4.207-.842-11.781-7.574-17.671C190.525-149.1,188-149.1,188-138.165Z" transform="translate(590.905 157.108)" fill="#979797"/>
    <path id="Path_7" data-name="Path 7" d="M192.559-124.17c2.525,9.256,7.574,16.83,11.781,16.83,3.366,0,5.89-7.574,5.049-16.83S203.5-141,198.449-141C192.559-141,190.035-134.268,192.559-124.17Z" transform="translate(617.482 199.493)" fill="#979797"/>
    <path id="Path_8" data-name="Path 8" d="M124-3.885c0,100.979,2.525,129.59,10.1,122.017,6.732-6.732,12.622-7.574,21.037-.842,8.415,7.574,10.939.842,10.939-37.867,0-45.441.842-47.965,19.354-45.441,15.988,2.525,19.354,8.415,22.72,48.807,2.525,29.452,6.732,42.075,10.94,35.343,5.89-8.415,10.1-8.415,19.354-.842,10.1,8.415,11.781,2.525,11.781-36.184,0-25.245-4.207-49.648-10.1-55.539-7.573-7.573-7.573-12.622,0-20.2,16.83-16.83,12.622-94.247-7.573-119.492C217.406-132.634,208.991-136,169.441-136H124Zm96.772-100.979c10.939,10.939,12.623,23.562,9.257,60.588-5.891,58.063-5.891,63.954-1.683,106.028,1.683,18.513.842,22.72-.842,8.415-5.049-35.343-16.83-46.282-49.648-46.282-26.928,0-27.77.841-31.135,39.55-1.683,22.72-3.366-10.1-4.207-71.527L140.83-119.17h32.819C193.844-119.17,212.357-113.279,220.772-104.865Z" transform="translate(116.348 235.638)" fill="#979797"/>
    <path id="Path_9" data-name="Path 9" d="M127-74.1c0,66.478,10.939,79.942,49.648,58.063,17.671-10.1,22.72-19.354,24.4-53.014C204.418-117.853,193.478-133,155.611-133H127Zm57.222,1.683c-2.524,38.709-5.049,44.6-21.037,47.124-18.513,2.525-19.354,0-19.354-43.758,0-44.6.842-47.124,21.879-47.124C185.9-116.17,186.746-114.487,184.222-72.412Z" transform="translate(138.593 257.905)" fill="#979797"/>
    <path id="Path_10" data-name="Path 10" d="M166.262-114.963c-22.72,21.879-31.135,64.8-9.256,47.124,9.256-7.574,13.464-7.574,18.513,0q6.311,11.36,12.622-7.574c4.207-10.94,14.305-18.513,24.4-18.513,13.464,0,16.83,5.049,16.83,29.452S221.8-25.764,190.665,7.054C159.53,40.714,151.115,56.7,146.907,87L142.7,124.864h59.746c57.222,0,58.9-.842,57.222-21.037-.841-19.354-4.207-21.037-36.184-21.037-20.2,0-36.184-3.366-36.184-8.415,0-4.207,12.622-20.2,27.769-35.343,43.758-43.758,56.38-67.32,56.38-101.821,0-38.709-30.294-73.21-63.112-73.21C196.556-136,177.2-126.744,166.262-114.963Zm74.893,9.256c7.574,6.732,13.464,17.671,13.464,22.72s-5.89.841-13.464-9.256c-14.305-20.2-43.758-24.4-62.271-8.415-10.1,9.256-10.1,8.415-.841-4.207C192.348-122.536,223.484-123.378,241.155-105.706Zm5.891,78.259c-5.049,9.256-24.4,34.5-42.916,55.539-44.6,52.173-44.6,69.844,2.524,74.052L242,105.509l-39.55.841c-37.026,1.683-40.392,0-40.392-17.671,0-21.037,14.305-45.441,56.38-92.565,15.147-16.83,27.769-37.867,28.611-46.282,0-7.574,2.525-10.1,4.207-4.208C253.777-48.484,251.253-36.7,247.045-27.447Z" transform="translate(255.008 235.634)" fill="#979797"/>
    <path id="Path_11" data-name="Path 11" d="M162-5.568V124.864h37.026c24.4,0,43.758-5.891,58.9-17.671,19.354-15.147,21.879-22.72,21.879-70.686,0-29.452-3.366-55.539-7.574-58.063s-5.049-21.037-3.366-42.075c5.891-49.648-15.147-72.368-69-72.368H162Zm82.467-103.5c5.89,5.89,10.1,15.988,10.1,22.72,0,9.257-4.208,7.574-13.464-5.89-7.573-10.94-21.879-18.513-33.66-18.513-19.354,0-21.037,2.524-18.513,35.343,1.683,29.452,5.891,37.026,21.037,38.709,10.94,1.683,23.562-5.049,31.977-16.83l14.305-19.354L251.2-50.167c-2.525,12.623-1.683,25.245,3.366,27.769,4.207,2.525,8.415,26.086,8.415,52.173,0,57.222-15.147,78.259-56.38,78.259H178.83v-227.2H206.6C221.746-119.17,238.576-114.963,244.467-109.072Zm-11.781,22.72c7.573,11.781-3.366,34.5-16.83,34.5-6.732,0-11.781-8.415-11.781-21.037C204.075-93.925,223.429-102.34,232.686-86.352Z" transform="translate(398.116 235.634)" fill="#979797"/>
    <path id="Path_12" data-name="Path 12" d="M165-64.1c0,65.637,9.256,77.417,47.124,60.588,17.671-8.415,20.2-15.147,20.2-54.7,0-50.49-10.1-64.8-43.758-64.8H165Zm46.282,4.208c0,32.818-3.366,42.075-14.305,44.6-12.622,2.525-15.147-4.207-15.147-44.6s2.525-47.124,15.147-44.6C207.916-101.963,211.282-92.706,211.282-59.888Z" transform="translate(420.361 331.794)" fill="#979797"/>
    <path id="Path_13" data-name="Path 13" d="M193-129.37c0,14.305,10.1,34.5,16.83,34.5,8.415,0,.841-31.977-9.256-38.709C196.366-136.1,193-134.419,193-129.37Z" transform="translate(627.98 245.122)" fill="#979797"/>
  </g>
</svg>
